<?xml version="1.0" encoding="utf-8"?>
<!-- Generator: Adobe Illustrator 24.0.3, SVG Export Plug-In . SVG Version: 6.00 Build 0)  -->
<svg version="1.1" id="Layer_1" xmlns="http://www.w3.org/2000/svg" xmlns:xlink="http://www.w3.org/1999/xlink" x="0px" y="0px"
	 viewBox="0 0 400 400" style="enable-background:new 0 0 400 400;" xml:space="preserve">
<style type="text/css">
	.st0{fill:#8431A6;}
	.st1{fill:#B34FC5;}
	.st2{fill:#A35EB5;}
	.st3{fill:#D5BFCC;}
	.st4{fill:#D8C2D7;}
	.st5{fill:#BB80D1;}
	.st6{fill:#BD83CA;}
	.st7{fill:#622066;}
	.st8{fill:#873299;}
</style>
<g>
	<g>
		<g>
			<g>
				<path class="st0" d="M246.13,44.18c-39.83,27.15-79.66,54.3-119.48,81.45L131.37,47C169.62,46.06,207.88,45.12,246.13,44.18z"/>
				<path class="st0" d="M128.07,43.58l129.84-3.2l-135.18,92.15L128.07,43.58z M134.67,50.42l-4.1,68.3l103.79-70.75L134.67,50.42z
					"/>
			</g>
			<g>
				<path class="st1" d="M288.83,180.42c-15.65,16.38-31.31,32.75-46.96,49.13c-0.01,0.01-0.01,0.01-0.01,0.01
					c-0.04,0.01-0.08,0.02-0.11,0.03c-25.89,10.41-51.77,20.82-77.66,31.24c-12.6-42.75-25.21-85.5-37.81-128.26
					c42.83-29.2,85.66-58.39,128.49-87.59c0,0.22,0.02,0.46,0.08,0.71C266.18,90.6,277.5,135.51,288.83,180.42z"/>
				<path class="st1" d="M122.2,131.12L252.8,42.1l5.11-1.71l34.79,141.06l-48.13,50.35l-0.78,0.8l-0.74,0.27
					c-0.05,0.02-0.1,0.04-0.15,0.05l-81.07,32.61L122.2,131.12z M284.96,179.4L252.52,50.76l-122.16,83.28l36,122.12l73.51-29.57
					L284.96,179.4z"/>
			</g>
			<g>
				<path class="st2" d="M159.72,295.33c-12.44-4.46-24.89-8.93-37.33-13.39c3.75-1.12,31.41-11.4,37.85-14.22
					C160.07,276.93,159.89,286.13,159.72,295.33z"/>
				<path class="st2" d="M121.39,278.59c3.51-1.05,31.05-11.27,37.45-14.07l5.01-2.19l-0.72,37.95l-51.94-18.63L121.39,278.59z
					 M156.64,272.98c-6.44,2.54-16.4,6.28-23.82,8.99l23.49,8.43L156.64,272.98z"/>
			</g>
			<g>
				<path class="st3" d="M290.8,186.34c-0.53,21.26-1.07,42.52-1.6,63.78c-9.51,7.56-19.03,15.13-28.54,22.69
					c-4.57-13.53-9.14-27.07-13.71-40.6C261.57,216.92,276.19,201.63,290.8,186.34z"/>
				<path class="st3" d="M242.96,231.33l51.57-53.95l1.39,70.04l-36.97,31.25L242.96,231.33z M287.08,195.3l-36.13,37.8l11.44,33.87
					l23.36-18.57L287.08,195.3z"/>
			</g>
			<g>
				<path class="st4" d="M314.93,133.7c-7.26,13.71-14.53,27.43-21.79,41.14c-10-39.63-19.99-79.27-29.99-118.9
					C280.41,81.87,297.67,107.78,314.93,133.7z"/>
				<path class="st4" d="M257.91,40.38L319,133.5l-27.03,51.03L257.91,40.38z M271.52,74.83l22.78,90.33l16.56-31.26L271.52,74.83z"
					/>
			</g>
			<g>
				<path class="st5" d="M295.14,234.52c0.45-18.06,0.91-36.12,1.36-54.19c0.28-0.36,0.46-0.74,0.56-1.13
					c5.74-10.83,11.47-21.66,17.21-32.49C307.89,175.98,301.52,205.25,295.14,234.52z"/>
				<path class="st5" d="M293.03,179.07l0.66-0.83l0.07-0.29L319,133.5l-23.1,115l-4.26-14.07L293.03,179.07z M300.32,180.53
					c-0.09,0.28-0.21,0.56-0.34,0.83l-0.41,16.41l5.85-26.87L300.32,180.53z"/>
			</g>
			<g>
				<path class="st5" d="M275.13,326.35c-4.39-15.67-8.78-31.35-13.17-47.02c0.27-0.27,0.42-0.56,0.52-0.87
					c9.3-7.4,18.61-14.8,27.92-22.2C285.31,279.63,280.22,302.99,275.13,326.35z"/>
				<path class="st5" d="M258.04,278.3l1.21-1.21l0.23-0.71l36.43-28.97l-20.36,93.44L258.04,278.3z M265.86,280.25l8.85,31.61
					l10.18-46.74L265.86,280.25z"/>
			</g>
			<g>
				<path class="st0" d="M169.84,372.48c6-15.28,11.99-30.56,17.99-45.84c0.02-0.01,0.03-0.02,0.05-0.03
					c23.08-14.71,46.16-29.41,69.23-44.12c5.07,18.09,10.13,36.18,15.2,54.27L169.84,372.48z"/>
				<path class="st0" d="M185.01,324.23l74.2-47.22l16.35,63.83l-109.87,36.6L185.01,324.23z M255.02,287.99l-64.35,41l-14.79,37.68
					l92.18-32.12L255.02,287.99z"/>
			</g>
			<g>
				<path class="st6" d="M184.29,321.9c-6.36-8.12-12.71-16.23-19.07-24.35c0.2-10.48,0.4-20.95,0.59-31.42
					c25.46-10.24,50.92-20.48,76.38-30.72c4.41,13.07,8.82,26.13,13.24,39.2c-0.2,0.46-0.25,1.01-0.07,1.66l0.19,0.69
					c-23.32,14.86-46.63,29.71-69.95,44.57C185.15,321.53,184.7,321.66,184.29,321.9z"/>
				<path class="st6" d="M161.7,298.72l0.66-34.98l81.97-32.97l14.86,44l-0.37,0.84l0.81,2.9L186.67,325l-0.77,0.02l-2.45,1.48
					L161.7,298.72z M251.8,274.76l-11.73-34.74l-70.79,28.48l-0.53,27.86l16.59,21.18l66.42-42.32
					C251.76,275.07,251.78,274.92,251.8,274.76z"/>
			</g>
			<g>
				<path class="st7" d="M100.83,288.4c4.2-1.26,8.39-2.51,12.59-3.77c15.92,5.71,31.84,11.42,47.77,17.14
					c0.12,0.04,0.23,0.06,0.35,0.09c6.67,8.52,13.35,17.04,20.02,25.56c-5.63,14.34-11.26,28.68-16.89,43.03
					C143.39,343.09,122.11,315.74,100.83,288.4z"/>
				<path class="st7" d="M94.93,286.51l18.59-5.57l48.72,17.48l1.3,0.31l22.01,28.1l-19.86,50.61L94.93,286.51z M159.45,304.85
					l-46.12-16.55l-6.59,1.97l56.92,73.16L177.57,328L159.45,304.85z"/>
			</g>
			<g>
				<path class="st8" d="M93.14,98.39c9,10.96,18,21.91,27,32.87c0.01,0.02,0,0.04,0.01,0.07l38.61,130.98
					c-7.21,3.15-14.42,6.31-21.64,9.46c-7.92,2.37-15.83,4.74-23.75,7.11c-0.55-0.01-1.04,0.15-1.45,0.43
					c-5.32,1.59-10.64,3.19-15.96,4.78c-0.28,0.04-0.56,0.12-0.82,0.24c0,0,0,0,0,0C94.47,222.36,93.81,160.37,93.14,98.39z"/>
				<path class="st8" d="M89.73,91l33.59,38.61l39.68,134.67l-24.47,10.7l-24.67,7.41l-0.22,0l-0.18,0.12l-18.53,4L89.73,91z
					 M112.78,275.4l23.14-6.93l18.62-8.14l-37.56-127.42l-20.23-24.62l1.84,171.36l11.92-3.57
					C111.21,275.71,111.98,275.48,112.78,275.4z"/>
			</g>
			<g>
				<path class="st2" d="M94.19,90.91c10.49-13.86,20.98-27.72,31.47-41.57c-1.49,24.81-2.98,49.63-4.47,74.45L94.19,90.91z"/>
				<path class="st2" d="M89.73,91l38.34-47.42l-5.34,88.95L89.73,91z M98.65,90.83l19.59,23.85l3.24-54L98.65,90.83z"/>
			</g>
			<polygon class="st2" points="244.33,230.77 122.73,132.53 162.99,264.28 			"/>
		</g>
	</g>
</g>
</svg>
