<?xml version="1.0" encoding="utf-8"?>
<!-- Generator: Adobe Illustrator 24.0.3, SVG Export Plug-In . SVG Version: 6.00 Build 0)  -->
<svg version="1.1" id="Layer_1" xmlns="http://www.w3.org/2000/svg" xmlns:xlink="http://www.w3.org/1999/xlink" x="0px" y="0px"
	 viewBox="0 0 400 400" style="enable-background:new 0 0 400 400;" xml:space="preserve">
<style type="text/css">
	.st0{fill:#F5F0A1;}
	.st1{fill:#BD4700;}
	.st2{fill:#FF9012;}
	.st3{fill:#FF5000;}
	.st4{fill:#C2531A;}
	.st5{fill:#FF6B00;}
	.st6{fill:#FFCB8B;}
	.st7{fill:#E75300;}
	.st8{fill:#974608;}
</style>
<g>
	<g>
		<g>
			<g>
				<path class="st0" d="M207.47,251.65c-0.38,0.11-0.74,0.34-1.02,0.73c-6.66,9.26-13.33,18.52-19.99,27.78
					c2.29-10.97,4.58-21.94,6.87-32.92c0.14-0.69-0.07-1.26-0.46-1.66c-3.68-7.36-7.36-14.72-11.05-22.07
					c10.27-9.08,20.54-18.15,30.81-27.23C210.91,214.74,209.19,233.19,207.47,251.65z"/>
				<path class="st0" d="M191,247l-12.06-24.04l36.56-32.31l-5.86,62.8l-1.37,0.39l-26.34,36.6L191,247z M209.77,201.93
					l-25.06,22.15l10.12,20.22c0.75,0.96,1.04,2.19,0.78,3.43l-4.63,22.17l13.58-18.87c0.21-0.29,0.44-0.54,0.7-0.77L209.77,201.93z
					"/>
			</g>
			<g>
				<path class="st1" d="M211,253.43c1.73-18.52,3.46-37.04,5.19-55.56c9.3,10.11,18.6,20.22,27.9,30.34l-20.16,45.07
					c-4.13-6.42-8.25-12.84-12.38-19.25c-0.16-0.24-0.34-0.41-0.54-0.55C210.99,253.45,211,253.44,211,253.43z"/>
				<path class="st1" d="M209.63,255.36l-1.11-0.75l5.83-62.18l32.48,35.32l-22.55,50.39L209.63,255.36z M218.02,203.3l-4.6,49.33
					c0.03,0.04,0.06,0.08,0.08,0.12l10.05,15.64l17.78-39.74L218.02,203.3z M209.69,255.4C209.69,255.4,209.69,255.4,209.69,255.4
					l1.3-1.93L209.69,255.4z"/>
			</g>
			<g>
				<path class="st2" d="M182.03,283.3c-4.26-10.76-8.52-21.53-12.77-32.29c3.2-8.39,6.4-16.78,9.6-25.17
					c3.57,7.13,7.14,14.26,10.7,21.38C187.06,259.25,184.54,271.27,182.03,283.3z"/>
				<path class="st2" d="M166.76,251.03l11.81-30.97l13.44,26.84l-9.29,44.48L166.76,251.03z M179.15,231.61L171.76,251l9.58,24.23
					l5.78-27.69L179.15,231.61z"/>
			</g>
			<g>
				<path class="st1" d="M183.92,340.64c-26.52-42.14-52.3-79.85-78.82-122c12.35-6.34,24.7-12.68,37.05-19.02
					c11.29,7.79,22.58,15.58,33.86,23.36l-10.58,27.73c-0.31,0.81,10.31,26.67,15.23,39.09
					C181.99,308.23,182.58,322.22,183.92,340.64z"/>
				<path class="st1" d="M181.95,341.88c-13.25-21.05-26.54-41.34-39.39-60.97c-12.86-19.64-42.1-62.77-42.1-62.77l41.87-21.23
					l36.52,25.19l-10.99,28.81c0.91,2.99,6.27,16.33,10.25,26.23c1.77,4.4,3.44,8.56,4.73,11.81l0.13,0.33l0.03,0.36
					c0.67,9.23,1.16,17.47,1.63,25.44c0.47,7.96,0.96,16.19,1.63,25.38l0.67,9.3L181.95,341.88z M173.78,278.89
					c-11.07-27.55-11.01-27.71-10.52-29l9.93-26.03l-31.21-21.53l-33.55,17.22c12.8,20.29,25.62,39.86,38.03,58.81
					c11.27,17.21,22.88,34.93,34.51,53.25c-0.37-5.67-0.69-11.01-1-16.24c-0.47-7.86-0.95-15.98-1.6-25.03
					C177.1,287.15,175.48,283.12,173.78,278.89z"/>
			</g>
			<g>
				<path class="st3" d="M141.84,195.63l-36.78,18.89c15.1-19,30.2-37.99,45.3-56.99c2.04,6.49,4.08,12.98,6.13,19.47l-14.15,18.46
					C142.17,195.49,142,195.55,141.84,195.63z"/>
				<path class="st3" d="M151.26,152.64l7.81,24.81l-14.88,19.42l-0.54,0.67l-0.79,0.18l-42.4,20.42L151.26,152.64z M153.9,176.54
					l-4.45-14.13l-35.86,45.11l27.18-13.95c0.04-0.02,0.08-0.04,0.13-0.06L153.9,176.54z"/>
			</g>
			<g>
				<path class="st4" d="M180.13,55.69c-9.68,31.95-19.35,63.91-29.03,95.86c-0.41,0-32.37,39.86-47.72,59.17
					c0.73-9.18,2.13-28.33,1.94-28.6C131.25,140.57,156.18,98.41,180.13,55.69z"/>
				<path class="st4" d="M101.06,210.53c0.75-9.4,1.49-28.37,1.49-28.37l0.8-1.28c25.66-41.12,50.81-83.63,74.74-126.33l10.46-18.66
					l-35.73,117.99l-0.71,0c-4.38,5.11-30.8,38.02-46.91,58.29l-4.75,5.98L101.06,210.53z M171.79,75.17
					c-20.71,36.38-42.23,72.49-64.13,107.6c-0.01,1.49-0.21,4.38-0.64,10.47c-0.23,3.35-0.49,6.88-0.73,10.09
					c7.68-9.64,17.05-21.34,24.74-30.9c5.38-6.69,9.69-12.01,12.8-15.83c2.77-3.4,4.27-5.23,5.2-6.22L171.79,75.17z"/>
			</g>
			<g>
				<path class="st5" d="M212.63,191.4c-0.06,0.04-22.26,19.64-33.3,29.4c-11.29-7.79-22.59-15.58-33.88-23.38l14.76-19.26
					c0.59-0.77-4.39-15.6-6.53-22.37c11.56-38.16,23.11-76.33,34.67-114.49C188.35,41.3,213.12,190.87,212.63,191.4z"/>
				<path class="st5" d="M142.11,197.95l15.74-20.54c-0.5-2.59-3.29-11.26-4.85-16.1c-0.58-1.81-1.12-3.47-1.54-4.82l-0.22-0.69
					l37.77-124.74l1.63,9.85c0.06,0.37,6.26,37.82,12.33,74.86c3.56,21.75,6.38,39.11,8.37,51.58c1.18,7.41,2.09,13.16,2.69,17.09
					c1.16,7.61,1.16,7.61,0.31,8.53l-0.16,0.18l-0.1,0.08c-1.43,1.25-22.76,20.08-33.2,29.32l-1.37,1.21L142.11,197.95z
					 M187.68,51.53l-31.56,104.24c0.38,1.2,0.83,2.6,1.32,4.1c5.84,18.11,5.63,18.39,4.62,19.7l-13.27,17.31l30.37,20.95
					c5.52-4.88,26.11-23.07,31.05-27.41C208.83,179.94,194.85,94.93,187.68,51.53z"/>
			</g>
			<g>
				<path class="st6" d="M281.65,180.87c-6.37,6.02-12.75,12.04-19.13,18.06c-0.6,0.22-11.19,17.64-16.22,25.78
					c-9.31-10.04-18.62-20.08-27.93-30.12c0.4-0.41-16.88-98.57-25.58-147.02C219.51,93.85,249.2,138.4,281.65,180.87z"/>
				<path class="st6" d="M214.8,194.52l0.88-0.89c-1.52-10.62-16.4-95.34-25.43-145.61l-2.62-14.58l7.41,12.83
					c26.59,46.07,56.42,90.83,88.67,133.03l1.42,1.85l-20.82,19.66l-0.02,0.02c-1.24,1.59-8.13,12.8-12.28,19.56
					c-1.3,2.12-2.51,4.08-3.5,5.68l-1.79,2.89L214.8,194.52z M260.75,197.04l17.43-16.46c-28.91-37.97-55.87-78-80.28-119.17
					c4.26,23.88,9.43,53.15,13.64,77.22c2.89,16.51,5.17,29.69,6.78,39.18c0.88,5.17,1.54,9.18,1.98,11.91
					c0.27,1.69,0.46,2.87,0.56,3.74l25.02,26.98c0.54-0.88,1.11-1.81,1.71-2.78C257.24,201.99,259.63,198.17,260.75,197.04
					L260.75,197.04z"/>
			</g>
			<g>
				<path class="st0" d="M273.43,224.27c-2.74-7.65-5.48-15.3-8.23-22.94l16.81-15.73C279.15,198.48,276.29,211.38,273.43,224.27z"
					/>
				<path class="st0" d="M262.49,200.67l23.42-21.92l-11.96,53.89L262.49,200.67z M267.91,201.98l4.99,13.92l5.2-23.46
					L267.91,201.98z"/>
			</g>
			<g>
				<path class="st7" d="M218.27,307.04c2.38-9.45,7.16-28.37,7.17-28.38c0.47-0.34,22.58-50.28,22.58-50.28
					c0.01-0.03,0.02-0.06,0.03-0.08c4.85-7.77,9.7-15.55,14.54-23.32c3.14,8.77,6.29,17.53,9.43,26.3
					C254.11,256.54,236.19,281.79,218.27,307.04z"/>
				<path class="st7" d="M216.02,306.47c6.73-26.71,7.23-28.7,7.57-29.2c-0.06,0.08-0.09,0.13-0.1,0.15
					c0.97-1.72,13.88-30.71,22.36-49.86l17.32-27.89l11.46,31.97l-61.65,86.89L216.02,306.47z M262.03,210.29l-11.88,19.05
					c-16.42,37.1-20.94,47.06-22.45,49.93l0,0c-0.09,0.33-2.07,8.17-4.12,16.27l45.85-64.62L262.03,210.29z M250.27,229.02
					c0-0.01,0.01-0.02,0.01-0.03L250.27,229.02z M245.8,227.69l0.01-0.03C245.81,227.67,245.81,227.68,245.8,227.69z"/>
			</g>
			<g>
				<path class="st5" d="M212.36,315.37c-7.91,11.15-15.83,22.31-23.74,33.46c-1.41-19.5-2.82-38.99-4.23-58.49
					c0.08-0.21,0.12-0.43,0.09-0.69c0.06-0.27,0.11-0.54,0.17-0.81c0.14-0.11,0.27-0.23,0.38-0.39
					c7.79-10.83,15.59-21.66,23.38-32.48c4.53,7.05,9.07,14.1,13.6,21.15C218.79,289.87,215.58,302.62,212.36,315.37z"/>
				<path class="st5" d="M182.03,289.99l0.11-0.28l-0.02-0.16l0.43-2.01l0.62-0.5l25.34-35.21l15.99,24.87l-9.99,39.66l-27.75,39.11
					L182.03,289.99z M219.5,277.53l-11.2-17.42l-21.38,29.71c-0.03,0.05-0.07,0.09-0.1,0.13c-0.01,0.21-0.03,0.42-0.07,0.62
					l3.74,51.62l19.74-27.82L219.5,277.53z"/>
			</g>
			<g>
				<path class="st3" d="M206.69,329.73c-5.12,12.01-10.25,24.01-15.37,36.02c-0.58-3.66-1.16-7.32-1.74-10.99
					C189.83,354.41,201.07,337.65,206.69,329.73z"/>
				<path class="st3" d="M187.14,354.21l0.98-1.45c9.64-14.31,14.38-21.16,16.67-24.38l12.56-17.7l-27.06,63.43L187.14,354.21z
					 M192.03,355.3l0.33,2.09l2.99-7.01C194.32,351.91,193.21,353.55,192.03,355.3z"/>
			</g>
			<g>
				<path class="st8" d="M127.95,260.37c18.31,28.96,41.61,64.39,56.68,88.33c0.07,0.16,0.9,4.75,1.01,4.87
					c0.02,0.03,0.04,0.06,0.06,0.09c0,0.01,1.06,4.66,2.31,9.52C167.23,330.5,146.71,294.24,127.95,260.37z"/>
				<path class="st8" d="M186.04,364.43c-21.34-33.57-67.83-114.23-85.59-146.29l29.46,40.98c9.15,14.48,19.52,30.53,29.55,46.05
					c10.07,15.59,19.59,30.31,27.13,42.29l0.15,0.28c0.14,0.32,0.16,0.39,0.54,2.35c0.15,0.78,0.39,2,0.51,2.54l0.13,0.21l0.06,0.39
					c0.14,0.6,1.13,4.92,2.28,9.37l0.03,11.5L186.04,364.43z M176.75,340.62c1.92,3.17,3.85,6.32,5.79,9.45
					c-0.03-0.18-0.07-0.33-0.09-0.46C180.65,346.76,178.75,343.76,176.75,340.62z"/>
			</g>
		</g>
	</g>
</g>
</svg>
