<?xml version="1.0" encoding="utf-8"?>
<!-- Generator: Adobe Illustrator 24.0.3, SVG Export Plug-In . SVG Version: 6.00 Build 0)  -->
<svg version="1.1" id="Layer_1" xmlns="http://www.w3.org/2000/svg" xmlns:xlink="http://www.w3.org/1999/xlink" x="0px" y="0px"
	 viewBox="0 0 400 400" style="enable-background:new 0 0 400 400;" xml:space="preserve">
<style type="text/css">
	.st0{fill:#F8EA47;}
	.st1{fill:#F5C400;}
	.st2{fill:#B29800;}
	.st3{fill:#FFDD00;}
	.st4{fill:#8B7A27;}
	.st5{fill:#C7A900;}
	.st6{fill:#FFD100;}
	.st7{fill:#FFFDEE;}
	.st8{fill:#FFF297;}
</style>
<g>
	<g>
		<g>
			<g>
				<path class="st0" d="M202.39,284.48c-0.79-0.62-1.69-0.64-2.44-0.33c-0.12,0.01-0.24,0.03-0.37,0.06
					c-12.28,3.39-24.55,6.78-36.83,10.17c5.94-16.23,11.88-32.47,17.83-48.7c0.25-0.7,0.17-1.3-0.12-1.76
					c0.07-0.44,0.01-0.93-0.24-1.42c-5.13-10.21-10.25-20.42-15.38-30.62c-0.11-0.21-0.24-0.38-0.38-0.54
					c1.88-24.2,3.75-48.41,5.63-72.61c21.54-0.52,43.09-1.04,64.63-1.55c2.82,10.15,5.65,20.31,8.47,30.46
					c-0.1,0.23-0.18,0.48-0.21,0.76c-4.68,45.62-9.36,91.24-14.04,136.86C220.08,298.33,211.24,291.41,202.39,284.48z"/>
				<path class="st0" d="M200.81,286.92l-0.51,0.1l-42.22,11.65l19.64-53.65l-0.31-0.5l0.14-0.86l-15.27-30.41l-0.81-0.89
					l5.93-76.47l69.5-1.67l6.85,24.62l2.51,9.03l-0.41,0.91l-14.57,141.99L200.81,286.92z M232.53,140.13l-59.75,1.44l-5.35,69.01
					l15.37,30.62c0.35,0.69,0.54,1.43,0.57,2.17c0.35,1.04,0.33,2.18-0.08,3.31l-15.89,43.42l31.42-8.67
					c0.15-0.04,0.29-0.07,0.43-0.09c1.7-0.55,3.52-0.23,4.93,0.87l22.41,17.55l13.51-131.64c0.02-0.17,0.04-0.34,0.08-0.5
					L232.53,140.13z M162.24,213.17L162.24,213.17C162.24,213.17,162.24,213.17,162.24,213.17z"/>
			</g>
			<g>
				<path class="st1" d="M223.63,306.91c-11.04,0.65-22.07,1.3-33.11,1.94c-0.04,0-0.07,0.01-0.1,0.02
					c-8.4-3.47-16.8-6.93-25.2-10.4c11.74-3.24,23.47-6.48,35.21-9.72C208.16,294.8,215.9,300.85,223.63,306.91z"/>
				<path class="st1" d="M156.31,297.92l44.76-12.36l30.38,23.79l-40.58,2.38l-0.88,0.09L156.31,297.92z M190.66,311.75
					c0.02,0,0.04,0,0.06,0L190.66,311.75z M191.01,311.7c0.01,0,0.03,0,0.04-0.01L191.01,311.7z M189.88,306.02l0.05-0.01
					C189.92,306.02,189.9,306.02,189.88,306.02z M199.8,291.93l-25.66,7.08l16.76,6.92l24.92-1.46L199.8,291.93z"/>
			</g>
			<g>
				<path class="st1" d="M149.68,243.71l12.76-26.36c4.55,9.07,9.1,18.13,13.66,27.2c-5.34,14.58-10.67,29.15-16.01,43.73
					c-3.44-14.75-6.87-29.51-10.3-44.26C149.76,243.9,149.72,243.81,149.68,243.71z"/>
				<path class="st1" d="M146.98,244.72L146.98,244.72l-0.44-1.16l15.86-32.77l16.85,33.57l-19.78,54.03L146.98,244.72z
					 M162.49,223.9L152.76,244l7.95,34.16l12.24-33.43L162.49,223.9z M147.54,244.54l-0.56,0.18c0.01,0.04,0.02,0.08,0.04,0.12
					l1.33-0.49L147.54,244.54z M146.97,244.67C146.97,244.67,146.97,244.67,146.97,244.67L146.97,244.67L146.97,244.67z
					 M149.73,243.84l-2.17,0.69l0.79-0.18L149.73,243.84z"/>
			</g>
			<g>
				<path class="st2" d="M166.82,131.83c-9.4-11.1-18.8-22.21-28.19-33.31c17.15-21.45,34.31-42.89,51.46-64.34
					C182.33,66.73,174.57,99.28,166.82,131.83z"/>
				<path class="st2" d="M134.87,98.57l61.03-76.3l-27.59,115.8L134.87,98.57z M142.37,98.47l22.95,27.12l18.94-79.5L142.37,98.47z"
					/>
			</g>
			<g>
				<path class="st3" d="M171,134.11c7.84-32.91,15.68-65.81,23.52-98.72c7.34,16.36,14.68,32.72,22.02,49.08
					c5.53,16.05,11.05,32.1,16.58,48.15C212.41,133.11,191.7,133.61,171,134.11z"/>
				<path class="st3" d="M195.9,22.27l23.28,61.01l17.96,52.14l-69.84,1.68L195.9,22.27z M213.84,85.53l-18.48-41.19l-20.68,86.78
					l54.4-1.31L213.84,85.53z"/>
			</g>
			<g>
				<path class="st4" d="M135.81,286.92c6.19,3.46,12.38,6.93,18.58,10.39l-16.54,16.13C137.17,304.6,136.49,295.76,135.81,286.92z"
					/>
				<path class="st4" d="M132.51,281.76l26.68,14.92l-23.75,23.17L132.51,281.76z M139.11,292.09l1.15,14.95l9.32-9.1L139.11,292.09
					z"/>
			</g>
			<g>
				<path class="st2" d="M138.44,319.3c6.41-6.25,12.81-12.5,19.22-18.75c7.06,25.36,14.12,50.72,21.19,76.08
					C165.38,357.51,151.91,338.4,138.44,319.3z"/>
				<path class="st2" d="M135.44,319.85l23.7-24.79l24.84,93.66L135.44,319.85z M142.23,319.64l29.33,41.61l-15.38-55.22
					L142.23,319.64z"/>
			</g>
			<g>
				<path class="st5" d="M145.29,242.26c-0.36,0.75-0.3,1.48,0.01,2.07c-0.03,0.26-0.03,0.54,0.04,0.84
					c3.73,16.02,7.46,32.04,11.19,48.07c-6.97-3.9-13.95-7.8-20.92-11.7c0.55-59.18,1.1-118.36,1.65-177.54
					c9.36,11.06,18.73,22.13,28.09,33.19c0.03,0.13,0.09,0.26,0.14,0.38c-0.02,0.22-0.01,0.42,0.03,0.62
					c-1.92,24.71-3.83,49.43-5.75,74.14C154.95,222.3,150.12,232.28,145.29,242.26z"/>
				<path class="st5" d="M132.7,283.23l2.17-184.66L168,135.84l0.13,0.55l0.29,0.7l-0.04,0.62l0.06,0.29l-5.82,75.09l-14.61,30.19
					l0.27,0.53l-0.1,0.8l12.65,54.36L132.7,283.23z M142.69,241l14.25-29.44l5.67-73.13l-22.52-26.6l-1.56,168.03l13.7,7.66
					l-9.7-41.68c-0.08-0.33-0.12-0.66-0.13-0.99C141.99,243.58,142.09,242.22,142.69,241z"/>
			</g>
			<g>
				<path class="st3" d="M184.9,381.24c-7.31-26.25-14.62-52.51-21.93-78.76c9.27,3.83,18.55,7.66,27.82,11.48
					c1.05,0.43,22.19-1.83,32.12-2.41c0.16,0.52,0.49,1,0.94,1.34C210.86,335.67,197.88,358.45,184.9,381.24z"/>
				<path class="st3" d="M158.58,297.53l32.92,13.59c0.02,0,0.03,0,0.05,0c1.85,0,8.9-0.62,14.64-1.13
					c6.02-0.53,12.25-1.08,16.54-1.34l5.23,0.43l-0.35,3.03l-43.64,76.59L158.58,297.53z M206.71,315.76
					c-15.28,1.35-15.96,1.31-17.02,0.88l-22.33-9.22l18.48,66.34l33.66-59.08C215.71,314.96,211.15,315.37,206.71,315.76z"/>
			</g>
			<g>
				<path class="st6" d="M199.6,364.73c10.15-17.81,20.29-35.62,30.44-53.43c5.21-2.54,10.42-5.07,15.63-7.61
					C230.31,324.04,214.96,344.38,199.6,364.73z"/>
				<path class="st6" d="M227.97,309.08l28.2-12.03l-72.18,91.65L227.97,309.08z M232.11,313.51l-7.75,13.59l11.72-15.53
					L232.11,313.51z"/>
			</g>
			<g>
				<path class="st3" d="M253.46,294.85c-0.03,0.01-0.06,0.01-0.09,0.02c-0.56,0.04-1.1,0.26-1.55,0.72l-18.2,8.86l13.66-133.16
					c0.23-0.24,0.41-0.55,0.53-0.93c4.46-14.91,8.93-29.82,13.39-44.73c4.95-6.41,9.89-12.82,14.84-19.23
					C267.02,169.03,259.48,231.86,253.46,294.85z"/>
				<path class="st3" d="M244.5,170.03l0.57-0.61l13.51-45.13l21.9-28.38l-1.57,10.91c-9.02,62.63-16.61,125.99-22.56,188.31
					l-0.18,1.93l-1.86,0.56l-0.37,0.11l-0.17,0.01l-0.22,0.23l-23.34,11.36L244.5,170.03z M250.75,292.76
					c5.58-58.22,12.6-117.33,20.86-175.89l-7.8,10.11l-13.24,44.22c-0.12,0.41-0.29,0.79-0.5,1.15l-13.05,127.22l13.16-6.4
					C250.37,293.02,250.56,292.88,250.75,292.76z"/>
			</g>
			<g>
				<path class="st7" d="M237.36,130.84c-4.45-12.92-8.89-25.84-13.34-38.76c10.02,10.25,20.05,20.5,30.07,30.75
					C248.51,125.5,242.93,128.17,237.36,130.84z"/>
				<path class="st7" d="M217.08,80.86l41.9,42.85l-23.31,11.16L217.08,80.86z M230.94,103.31l8.09,23.51l10.15-4.86L230.94,103.31z
					"/>
			</g>
			<g>
				<path class="st8" d="M255.99,127.01c-3.34,11.16-6.68,22.32-10.02,33.47c-2.35-8.44-4.69-16.87-7.04-25.31
					C244.61,132.45,250.3,129.73,255.99,127.01z"/>
				<path class="st8" d="M235.49,133.61l25.15-12.04l-14.78,49.35L235.49,133.61z M242.37,136.74l3.7,13.3l5.27-17.59L242.37,136.74
					z"/>
			</g>
			<g>
				<path class="st8" d="M277.36,97.22c-6.16,7.98-12.32,15.96-18.47,23.94c-12.84-13.13-25.69-26.27-38.53-39.4
					c0,0-0.01-0.01-0.01-0.01c-7.38-16.45-10.9-32.91-18.28-49.36c26.42,21.38,48.98,42.76,75.4,64.14
					C277.42,96.76,277.39,96.99,277.36,97.22z"/>
				<path class="st8" d="M218.38,83.89l-0.47-0.47L195.9,22.27l84.65,73.04l-0.44,3.09l-20.97,27.18L218.38,83.89z M205.8,42.27
					l16.97,37.82l35.86,36.67l15.08-19.54L205.8,42.27z"/>
			</g>
		</g>
	</g>
</g>
</svg>
