<?xml version="1.0" encoding="utf-8"?>
<!-- Generator: Adobe Illustrator 24.0.3, SVG Export Plug-In . SVG Version: 6.00 Build 0)  -->
<svg version="1.1" id="Layer_1" xmlns="http://www.w3.org/2000/svg" xmlns:xlink="http://www.w3.org/1999/xlink" x="0px" y="0px"
	 viewBox="0 0 400 400" style="enable-background:new 0 0 400 400;" xml:space="preserve">
<style type="text/css">
	.st0{fill:#CF0A2C;}
	.st1{fill:#AC162C;}
	.st2{fill:#F7323F;}
	.st3{fill:#FFB0C0;}
	.st4{fill:#FF9BB1;}
	.st5{fill:#FFE3E3;}
	.st6{fill:#FD5373;}
	.st7{fill:#EB0029;}
	.st8{fill:#7A232E;}
</style>
<g>
	<g>
		<g>
			<g>
				<path class="st0" d="M188.64,115.93c-18.96,28.57-37.92,57.13-56.87,85.69c-0.33-11.5-0.66-23-0.99-34.51
					c21.74-43.49,43.47-86.97,65.2-130.46c-2.14,25.67-4.29,51.35-6.43,77.02C188.66,114.23,188.42,115.1,188.64,115.93z"/>
				<path class="st0" d="M127.61,166.42L199,22.33l-6.44,93.19l-0.66,0.41l0.15,0.56l-63.14,95.14L127.61,166.42z M186.51,112.22
					l4.97-59.51l-57.53,115.11l0.68,23.79l50.79-76.53C185.48,114.03,185.86,113.04,186.51,112.22z"/>
			</g>
			<g>
				<path class="st1" d="M293.73,64.81c-32.99,15.47-65.99,30.93-98.99,46.4c2.35-28.11,4.69-56.22,7.04-84.32
					C232.43,39.53,263.08,52.17,293.73,64.81z"/>
				<path class="st1" d="M199,22.33l102.54,42.29l-110.39,51.75L199,22.33z M204.56,31.44l-6.23,74.61l87.58-41.05L204.56,31.44z"/>
			</g>
			<g>
				<path class="st2" d="M300.7,209.03c-0.07,0.23-0.1,0.47-0.11,0.72c-14.45,8.09-28.9,16.17-43.34,24.26l-39.4,3.64
					c-0.26,0.02-0.49,0.09-0.71,0.17c-0.52,0.17-1,0.53-1.34,1.14c-5,9.1-10,18.21-15,27.31l-68.3-56.75
					c20.44-30.79,40.88-61.59,61.31-92.38c33.83-15.86,67.66-31.72,101.49-47.57C297.1,116.05,298.9,162.54,300.7,209.03z"/>
				<path class="st2" d="M191.67,114.66l109.87-50.03l2.33,144.82l-0.13,0.42l-0.06,1.76l-45.48,25.45l-39.79,3.67l-16.68,30.38
					l-73.41-60.99L191.67,114.66z M213.04,237.44c0.69-1.25,1.74-2.15,3.05-2.6c0.5-0.18,0.98-0.29,1.47-0.34l38.73-3.58
					l41.21-23.06l-5.16-133.43l-96.39,45.18l-59.26,89.29l63.19,52.5L213.04,237.44z M218.13,240.78
					C218.13,240.78,218.13,240.78,218.13,240.78L218.13,240.78z"/>
			</g>
			<g>
				<path class="st3" d="M219.56,242.5c11.25-1.04,22.49-2.08,33.74-3.12l-24.31,27.64c-0.05,0.05-0.08,0.11-0.12,0.17
					c-8.01,0.71-16.03,1.42-24.04,2.13C209.74,260.38,214.65,251.44,219.56,242.5z"/>
				<path class="st3" d="M217.6,239.52l43.29-4l-29.43,33.47l-0.92,1.23l-31.32,2.77L217.6,239.52z M245.7,243.25l-24.19,2.23
					l-11.09,20.18l16.88-1.49L245.7,243.25z M231.53,268.89c0.01-0.01,0.01-0.01,0.01-0.02L231.53,268.89z"/>
			</g>
			<g>
				<path class="st4" d="M344.79,209.63c-12.91-0.64-25.81-1.27-38.72-1.91c-0.14-0.06-0.28-0.1-0.42-0.13
					c-1.74-44.87-2.37-98.09-4.11-142.96C316.33,110.18,330,164.07,344.79,209.63z"/>
				<path class="st4" d="M301.54,64.63L349.19,213l-43.28-2.13l-0.57-0.05l-0.42-0.16l-2.32-0.48L301.54,64.63z M304.47,95.58
					l4.22,109.11l31.7,1.56L304.47,95.58z"/>
			</g>
			<g>
				<path class="st5" d="M342.11,214.48c-28.56,25.59-61.37,61.58-91.02,89.85c18.78-30.52,37.57-61.04,56.35-91.56
					C319,213.34,330.55,213.91,342.11,214.48z"/>
				<path class="st5" d="M305.73,209.54l44.18,2.18l-5.71,5.12c-16.32,14.63-34.38,33.01-51.85,50.79
					c-13,13.23-26.44,26.92-39.1,38.99l-17.61,16.79L305.73,209.54z M309.14,216.01l-41.9,68.07c6.87-6.88,13.81-13.94,20.62-20.88
					c15.56-15.84,31.59-32.16,46.51-45.95L309.14,216.01z"/>
			</g>
			<g>
				<path class="st4" d="M181.3,339.08c7-21.51,13.99-43.01,20.99-64.52l27.11-2.4c0.76-0.07,1.33-0.41,1.71-0.88
					c0.51-0.05,1.03-0.29,1.48-0.8c9.48-10.78,18.96-21.56,28.43-32.34c0.23-0.26,0.39-0.54,0.49-0.82
					c12.68-7.1,25.36-14.19,38.03-21.29c-20.31,32.99-40.61,65.99-60.92,98.98C219.53,323.05,200.42,331.06,181.3,339.08z"/>
				<path class="st4" d="M199.95,271.61l28.93-2.56l0.63-0.77l0.92-0.09l28.19-32.05l0.37-0.98l49.61-27.76l-72.94,116.02
					l-59.47,21.23L199.95,271.61z M290.53,224.71l-26.67,14.93c-0.14,0.2-0.29,0.4-0.46,0.59l-28.43,32.33
					c-0.65,0.74-1.43,1.28-2.3,1.58c-0.84,0.65-1.87,1.05-2.98,1.15l-25.03,2.21l-18.22,56l50.06-20.99L290.53,224.71z"/>
			</g>
			<g>
				<path class="st6" d="M100.84,338.44c31.69-20.14,63.39-40.27,95.08-60.4c-6.9,21.19-13.79,42.39-20.69,63.58
					c-0.26,0.11-0.51,0.21-0.76,0.32c-0.19,0.08-0.35,0.17-0.51,0.28C149.59,340.96,125.22,339.7,100.84,338.44z"/>
				<path class="st6" d="M201.63,270.68l-23.85,73.29l-2.07,0.87l-0.85,0.58l-83.89-2.89L201.63,270.68z M190.22,285.4l-79.35,50.41
					l61.91,3.19L190.22,285.4z"/>
			</g>
			<g>
				<path class="st1" d="M75.13,251.54c16.77-13.83,34.46-26.48,52.95-37.92c0.25-0.15,0.44-0.34,0.6-0.53
					c0.1,0,0.19-0.01,0.29-0.01c23.09,19.19,46.19,38.37,69.28,57.56L93.12,337.43C87.12,308.8,81.13,280.17,75.13,251.54z"/>
				<path class="st1" d="M71.66,250.32l1.47-1.21c16.7-13.77,34.6-26.59,53.2-38.11l0.94-1.1l1.46,0.04c-0.01,0-0.02,0-0.02,0
					c0,0,0.01,0,0.02,0l1.27-0.1l71.63,60.84L90.97,342.53L71.66,250.32z M128.69,216.94c-17.48,10.88-34.31,22.92-50.09,35.81
					l16.66,79.57l97.65-62.03L128.69,216.94z"/>
			</g>
			<g>
				<path class="st7" d="M84.86,207.29c0.25-0.11,0.49-0.24,0.72-0.45c13.44-11.9,26.87-23.79,40.31-35.69
					c0.36,12.54,0.72,25.07,1.07,37.61c0,0.03,0.01,0.05,0.01,0.08c-0.03,0.04-0.06,0.09-0.09,0.13c-0.45-0.03-0.93,0.08-1.41,0.38
					c-17.26,10.68-33.8,22.44-49.59,35.18C78.88,232.11,81.87,219.7,84.86,207.29z"/>
				<path class="st7" d="M81.8,206.55l0.38-1.53l1.38-0.6l45.28-40.09l1.26,44.17l0.16,1.05l-1.76,2.68l-1.54-0.09
					c-16.86,10.45-33.38,22.17-49.11,34.85l-6.21,3.34L81.8,206.55z M122.93,177.98l-35.26,31.22c-0.01,0.01-0.03,0.02-0.04,0.03
					l-6.55,27.16c13.78-10.7,28.1-20.66,42.67-29.68L122.93,177.98z M83.49,204.48L83.49,204.48
					C83.49,204.48,83.49,204.48,83.49,204.48z"/>
			</g>
			<g>
				<path class="st8" d="M103.82,130.92c28.76-31.22,57.52-62.45,86.28-93.67c-21.09,42.19-42.18,84.39-63.27,126.59
					c-0.24,0.1-0.47,0.24-0.69,0.44c-13.26,11.74-26.51,23.47-39.77,35.21C92.19,176.63,98,153.78,103.82,130.92z"/>
				<path class="st8" d="M100.96,129.38L199,22.33l-69.35,142.92l-0.55,1l-0.93,0.44l-45.99,38.33L100.96,129.38z M177.32,55.78
					l-70.64,76.69l-14.73,57.87l32.1-28.42c0.12-0.11,0.24-0.21,0.37-0.3L177.32,55.78z M128.11,166.72L128.11,166.72L128.11,166.72
					z M128.23,166.64C128.23,166.64,128.23,166.64,128.23,166.64L128.23,166.64z"/>
			</g>
		</g>
	</g>
</g>
</svg>
